# xmcd
#
# Track frame offsets:
#	150
#	17250
#	35895
#	49300
#	77217
#	93585
#	110752
#	126942
#	145005
#	160390
#	176980
#	200970
#	220812
#	236775
#
# Disc length: 3354 seconds
#
# Revision: 0
# Processed by: cddbd v1.4PL0 Copyright (c) Steve Scherf et al.
# Submitted via: audiograbber 1.81.03
#
DISCID=d60d180e
DTITLE=Mark Hummel - Heart Of Chicago
DYEAR=1997
DGENRE=Blues
TTITLE0=My Kind Of Baby
TTITLE1=Rockin' At The Riverside
TTITLE2=Lost A Good Man
TTITLE3=Rollin' From Side To Side
TTITLE4=Tryin' To Make A Living
TTITLE5=Love Shock
TTITLE6=I Want Your Love
TTITLE7=Peaches Tree
TTITLE8=Step Back Baby
TTITLE9=But I Forgive You
TTITLE10=Out On A Limb
TTITLE11=Ready For Eddie
TTITLE12=Drinkin' Again
TTITLE13=Living With The Blues
EXTD=
EXTT0=
EXTT1=
EXTT2=
EXTT3=
EXTT4=
EXTT5=
EXTT6=
EXTT7=
EXTT8=
EXTT9=
EXTT10=
EXTT11=
EXTT12=
EXTT13=
PLAYORDER=
